<svg width="307" height="63" viewBox="0 0 307 63" fill="none" xmlns="http://www.w3.org/2000/svg">
<path d="M7.99789 0.299805C3.74637 0.299805 0.299805 3.88153 0.299805 8.2998V54.2998C0.299805 58.7181 3.74637 62.2998 7.99789 62.2998H28.1284C28.8153 62.2998 29.4355 61.9067 29.8612 61.3464C31.2705 59.4912 33.4525 58.2998 35.9036 58.2998C38.3547 58.2998 40.5366 59.4912 41.946 61.3464C42.3716 61.9067 42.9919 62.2998 43.6787 62.2998H298.602C302.853 62.2998 306.3 58.7181 306.3 54.2998V8.2998C306.3 3.88153 302.853 0.299805 298.602 0.299805H43.6787C42.9919 0.299805 42.3716 0.692946 41.946 1.25319C40.5366 3.10837 38.3547 4.2998 35.9036 4.2998C33.4525 4.2998 31.2705 3.10837 29.8612 1.25319C29.4355 0.692946 28.8153 0.299805 28.1284 0.299805H7.99789Z" fill="#FEFEFE"/>
<mask id="mask0_1981_8618" style="mask-type:alpha" maskUnits="userSpaceOnUse" x="0" y="0" width="307" height="63">
<path d="M7.99789 0.299805C3.74637 0.299805 0.299805 3.88153 0.299805 8.2998V54.2998C0.299805 58.7181 3.74637 62.2998 7.99789 62.2998H28.1284C28.8153 62.2998 29.4355 61.9067 29.8612 61.3464C31.2705 59.4912 33.4525 58.2998 35.9036 58.2998C38.3547 58.2998 40.5366 59.4912 41.946 61.3464C42.3716 61.9067 42.9919 62.2998 43.6787 62.2998H298.602C302.853 62.2998 306.3 58.7181 306.3 54.2998V8.2998C306.3 3.88153 302.853 0.299805 298.602 0.299805H43.6787C42.9919 0.299805 42.3716 0.692946 41.946 1.25319C40.5366 3.10837 38.3547 4.2998 35.9036 4.2998C33.4525 4.2998 31.2705 3.10837 29.8612 1.25319C29.4355 0.692946 28.8153 0.299805 28.1284 0.299805H7.99789Z" fill="#FEFEFE" stroke="#B9B9B9" stroke-width="0.3"/>
</mask>
<g mask="url(#mask0_1981_8618)">
<path d="M10.2998 -4.7002H0.299805V32.2998L10.2998 39.2998V-4.7002Z" fill="currentColor"/>
<path d="M10.2998 42.2877L0.299805 35.2998V41.3119L10.2998 48.2998V42.2877Z" fill="currentColor"/>
<path d="M10.2998 51.2877L0.299805 44.2998V50.3119L10.2998 57.2998V51.2877Z" fill="currentColor"/>
<path d="M10.2998 60.2877L0.299805 53.2998V59.3119L10.2998 66.2998V60.2877Z" fill="currentColor"/>
<path d="M9.2998 67.2877L0.299805 60.2998V66.3119L9.2998 73.2998V67.2877Z" fill="currentColor"/>
</g>
<path d="M43.6787 0.149414C42.9326 0.149426 42.2717 0.5757 41.8262 1.16211C40.4431 2.98271 38.3042 4.14941 35.9033 4.14941C33.5026 4.14933 31.3635 2.98265 29.9805 1.16211C29.5349 0.575825 28.874 0.149414 28.1279 0.149414H7.99805C3.65829 0.149414 0.149414 3.80417 0.149414 8.2998V54.2998C0.149414 58.7954 3.65829 62.4502 7.99805 62.4502H28.1279C28.874 62.4502 29.5349 62.0238 29.9805 61.4375C31.3635 59.617 33.5026 58.4503 35.9033 58.4502C38.3042 58.4502 40.4431 59.6169 41.8262 61.4375C42.2717 62.0239 42.9326 62.4502 43.6787 62.4502H298.602C302.941 62.4502 306.45 58.7954 306.45 54.2998V8.2998C306.45 3.80417 302.941 0.149414 298.602 0.149414H43.6787Z" stroke="#B9B9B9" stroke-width="0.3"/>
</svg>
