<svg width="24" height="24" viewBox="0 0 24 24" fill="none" xmlns="http://www.w3.org/2000/svg">
<path d="M17.0625 17.2498C17.0602 17.9081 16.827 18.5447 16.4037 19.0487C15.9803 19.5528 15.3935 19.8924 14.7456 20.0084C14.0976 20.1243 13.4295 20.0094 12.8576 19.6835C12.2856 19.3576 11.8462 18.8414 11.6156 18.2248C11.5767 18.0889 11.5904 17.9433 11.654 17.817C11.7177 17.6907 11.8265 17.593 11.9589 17.5434C12.0913 17.4937 12.2375 17.4957 12.3685 17.5491C12.4995 17.6024 12.6056 17.7031 12.6656 17.8311C12.7719 18.1207 12.9555 18.3757 13.1966 18.5682C13.4376 18.7608 13.7268 18.8836 14.0328 18.9233C14.3388 18.963 14.6497 18.918 14.9319 18.7933C15.2141 18.6686 15.4567 18.4689 15.6334 18.216C15.81 17.9631 15.914 17.6665 15.9338 17.3586C15.9537 17.0508 15.8889 16.7433 15.7462 16.4697C15.6036 16.1962 15.3887 15.9669 15.1249 15.8069C14.8611 15.6469 14.5585 15.5623 14.25 15.5623H3.75C3.60082 15.5623 3.45774 15.5031 3.35225 15.3976C3.24676 15.2921 3.1875 15.149 3.1875 14.9998C3.1875 14.8506 3.24676 14.7076 3.35225 14.6021C3.45774 14.4966 3.60082 14.4373 3.75 14.4373H14.25C14.9952 14.4398 15.7091 14.7369 16.236 15.2638C16.7629 15.7907 17.06 16.5047 17.0625 17.2498ZM14.0625 6.74982C14.0602 6.09156 13.827 5.45497 13.4037 4.95091C12.9803 4.44685 12.3935 4.10726 11.7456 3.99127C11.0976 3.87529 10.4295 3.99026 9.85757 4.31616C9.28565 4.64206 8.84615 5.15824 8.61563 5.77482C8.57672 5.91076 8.59044 6.05637 8.65405 6.18265C8.71766 6.30894 8.82651 6.40663 8.95891 6.45628C9.0913 6.50593 9.23754 6.50389 9.36851 6.45058C9.49947 6.39726 9.60555 6.29657 9.66562 6.16857C9.77189 5.87893 9.95553 5.62396 10.1966 5.43139C10.4376 5.23882 10.7268 5.11602 11.0328 5.07634C11.3388 5.03665 11.6497 5.08161 11.9319 5.20631C12.2141 5.33101 12.4567 5.53069 12.6334 5.78364C12.81 6.03658 12.914 6.33312 12.9338 6.64099C12.9537 6.94887 12.8889 7.25631 12.7462 7.52989C12.6036 7.80347 12.3887 8.03272 12.1249 8.1927C11.8611 8.35269 11.5585 8.43729 11.25 8.43732H2.25C2.10082 8.43732 1.95774 8.49658 1.85225 8.60207C1.74676 8.70756 1.6875 8.85063 1.6875 8.99982C1.6875 9.149 1.74676 9.29208 1.85225 9.39757C1.95774 9.50306 2.10082 9.56232 2.25 9.56232H11.25C11.9952 9.55985 12.7091 9.26274 13.236 8.73583C13.7629 8.20892 14.06 7.49498 14.0625 6.74982ZM19.5 6.93732C18.9261 6.9394 18.3666 7.1164 17.8959 7.4447C17.4252 7.773 17.0658 8.237 16.8656 8.77482C16.8267 8.91076 16.8404 9.05637 16.9041 9.18266C16.9677 9.30894 17.0765 9.40663 17.2089 9.45628C17.3413 9.50593 17.4875 9.50389 17.6185 9.45058C17.7495 9.39726 17.8556 9.29657 17.9156 9.16857C18.0219 8.87893 18.2055 8.62396 18.4466 8.43139C18.6876 8.23882 18.9768 8.11602 19.2828 8.07634C19.5888 8.03665 19.8997 8.08161 20.1819 8.20631C20.4641 8.33101 20.7067 8.53069 20.8834 8.78364C21.06 9.03658 21.164 9.33312 21.1838 9.64099C21.2037 9.94887 21.1389 10.2563 20.9962 10.5299C20.8536 10.8035 20.6387 11.0327 20.3749 11.1927C20.1111 11.3527 19.8085 11.4373 19.5 11.4373H3C2.85082 11.4373 2.70774 11.4966 2.60225 11.6021C2.49676 11.7076 2.4375 11.8506 2.4375 11.9998C2.4375 12.149 2.49676 12.2921 2.60225 12.3976C2.70774 12.5031 2.85082 12.5623 3 12.5623H19.5C20.2459 12.5623 20.9613 12.266 21.4887 11.7386C22.0162 11.2111 22.3125 10.4957 22.3125 9.74982C22.3125 9.0039 22.0162 8.28853 21.4887 7.76108C20.9613 7.23363 20.2459 6.93732 19.5 6.93732Z" fill="#A4A4A4"/>
</svg>
